<?xml version="1.0" encoding="UTF-8" standalone="no"?>
<!DOCTYPE svg PUBLIC "-//W3C//DTD SVG 1.1//EN"
        "http://www.w3.org/Graphics/SVG/1.1/DTD/svg11.dtd">
<svg width="100%" height="100%" viewBox="0 0 910 1351" version="1.1"
     xmlns="http://www.w3.org/2000/svg"
     xmlns:xlink="http://www.w3.org/1999/xlink" xml:space="preserve"
     xmlns:serif="http://www.serif.com/"
     style="fill-rule:evenodd;clip-rule:evenodd;stroke-linejoin:round;stroke-miterlimit:2;">
    <path d="M904,5l-899,0l0,1340l899,0l0,-1340Zm-635.375,180.326c2.539,35.758 -64.87,43.527 -78,36c-13.129,-7.526 -20.444,-18.746 -28,-3c-7.555,15.746 -23.195,-0.513 -42,17c-18.804,17.513 -62.144,67.249 -78,108c-15.856,40.752 -23.126,78.095 -18,117c5.126,38.906 19.007,112.882 21,162c1.993,49.118 -19.689,107.64 14,143c33.69,35.36 37.442,-5.772 46,50c8.558,55.773 -6.521,38.215 32,90c38.521,51.785 15.761,69.868 71,91c55.239,21.134 50.461,-15.417 92,28.004c41.54,43.41 68.341,44.84 102,66c33.66,21.15 72.641,25.38 107,6c34.359,-19.38 44.314,-22.33 59,-48c14.687,-25.67 22.75,-32.61 70,-46c40.979,-11.616 45.653,-10.984 71,-39.004c25.348,-28.02 46.995,-13.965 65,-63c18.006,-49.035 12.246,-72.579 23,-100c22.133,-56.432 58.907,-12.305 38,-138c-4.219,-25.369 20.278,-121.153 36,-176c14.951,-52.156 15.112,-107.059 -5,-158c-17.092,-43.292 -23.079,-50.734 -47,-68c-23.92,-17.265 -34.325,-26.533 -71,-33c-36.675,-6.467 -53.49,4.888 -71,-11c-17.509,-15.887 2.478,-59.031 -25,-58c-27.478,1.031 -42.871,4.078 -55,-1c-12.129,-5.077 -10.851,-27.318 -22,-35c-5.902,-4.066 -11.116,-8.518 -16,6c-4.883,14.518 -5.335,15.495 -16,41c-10.664,25.505 -6.794,13.471 -30,31c-23.206,17.529 -25.305,8.154 -50,7c-24.695,-1.153 -33.345,-4.233 -53,-8c-19.654,-3.767 -27.103,-15.502 -37,-34c-9.896,-18.497 8.749,-38.929 -11,-50c-19.748,-11.07 -19.972,-19.491 -35,2c-15.027,21.491 -30.995,7.035 -41,21c-10.005,13.965 -19.115,31.292 -18,47Z"/></svg>
