<?xml version="1.0" encoding="UTF-8" standalone="no"?>
<!DOCTYPE svg PUBLIC "-//W3C//DTD SVG 1.1//EN" "http://www.w3.org/Graphics/SVG/1.1/DTD/svg11.dtd">
<svg width="100%" height="100%" viewBox="0 0 40 40" version="1.1" xmlns="http://www.w3.org/2000/svg"
     style="fill-rule:evenodd;clip-rule:evenodd;stroke-linejoin:round;stroke-miterlimit:2;">
    <path d="M30.992,1.254c1.832,1.724 3.017,4.094 3.555,7.003c0.862,4.094 1.186,8.51 1.078,13.143c-0.108,4.74 -1.076,8.861 -2.584,12.201c-0.93,1.168 -1.986,2.897 -4.45,4.352c-0.404,0.239 -0.808,0.434 -1.199,0.566c-1.293,0.215 -2.756,0.225 -4.048,0.118c-3.879,-1.185 -7.003,-2.909 -9.373,-5.387c-5.386,-5.279 -9.48,-11.958 -12.281,-19.822c-0.216,-1.724 -0.216,-2.693 -0.108,-3.017c0.97,-1.292 2.586,-1.723 4.848,-1.4c2.262,0.323 3.986,0.646 5.279,0.969c1.293,0 2.262,0 3.124,-0.107c1.185,-0.216 2.155,-0.431 3.124,-0.647c2.047,-0.538 3.569,-1.245 5.109,-2.368c2.65,-1.933 4.11,-5.119 6.526,-5.604c0.616,-0.123 0.969,-0.323 1.4,0Z"
          style="fill-opacity:0.94;"/>
    <path d="M29.742,5.002c1.596,1.461 2.629,3.471 3.099,5.937c0.751,3.471 1.033,7.216 0.939,11.144c-0.094,4.019 -0.937,7.514 -2.252,10.345c-0.811,0.99 -1.732,2.457 -3.88,3.691c-0.352,0.202 -0.705,0.368 -1.045,0.479c-1.127,0.183 -2.403,0.191 -3.53,0.1c-3.381,-1.005 -6.104,-2.466 -8.171,-4.567c-4.696,-4.476 -8.265,-10.139 -10.706,-16.807c-0.188,-1.462 -0.188,-2.284 -0.094,-2.558c0.845,-1.096 2.254,-1.462 4.226,-1.188c1.972,0.274 3.475,0.549 4.602,0.823c1.127,-0 1.972,-0 2.724,-0.092c1.033,-0.182 1.878,-0.365 2.723,-0.548c1.785,-0.457 3.112,-1.056 4.454,-2.008c2.31,-1.639 3.583,-4.34 5.69,-4.751c0.537,-0.105 0.845,-0.274 1.221,-0Z"
          style="fill:#828282;fill-opacity:0.94;"/>
    <path d="M25.077,35.4c-0.083,0.085 -0.167,0.169 -0.25,0.169c-1.586,0.085 -2.922,-0.169 -3.924,-0.677c-5.296,-2.549 -8.679,-6.595 -11.438,-11.508c-0.79,-1.405 -3.126,-5.78 -3.34,-7.023c-0.209,-1.214 -0.417,-1.862 -0.25,-2.116c0.25,-0.592 1.108,-1.114 2.11,-1.198c1.002,-0.169 2.064,0.183 3.483,0.606c1.42,0.423 2.839,0.508 4.258,0.339c1.42,-0.254 2.379,-0.453 2.797,-0.537c1.453,4.978 2.612,8.769 4.195,14.633c-2.546,0.918 -6.743,-0.765 -7.995,-1.357c1.169,2.792 4.102,4.407 8.1,4.777c0.334,-0.085 0.829,-0.095 1.08,-0.18l1.174,4.072Z"
          style="fill:#bcbcbc;fill-opacity:0.5;"/>
    <path d="M24.88,32.322c-5.195,0.855 -10.431,-3.277 -11.212,-5.838c1.532,0.715 6.806,2.759 9.916,1.554c3.284,-1.273 7.09,-5.942 7.136,-5.851c0.871,1.74 -3.676,9.778 -5.84,10.135Zm-14.417,-11.233c1.985,-0.758 1.88,-5.912 7.081,-5.521c1.2,0.09 0.675,1.301 0.941,1.96c0.273,0.678 0.614,1.22 0.715,1.372c-1.8,0.1 -3.7,0.5 -5.6,1.1c-1.7,0.6 -3.698,1.304 -3.137,1.089Zm12.431,-3.68c0.676,-0.428 0.482,-1.686 -0.294,-2.209c-2.526,-1.703 0.936,-1.971 4.624,-1.946c2.131,0.014 3.645,2.744 3.368,2.493c-0.417,-0.376 -4.948,-0.559 -7.698,1.662c-0.023,0.015 -0.047,0.028 -0.072,0.041c0.024,-0.014 0.048,-0.028 0.072,-0.041Z"
          style="fill:#fff;fill-opacity:0.98;"/>
</svg>
