<?xml version="1.0" encoding="UTF-8" standalone="no"?>
<!DOCTYPE svg PUBLIC "-//W3C//DTD SVG 1.1//EN" "http://www.w3.org/Graphics/SVG/1.1/DTD/svg11.dtd">
<svg width="100%" height="100%" viewBox="0 0 40 40" version="1.1" xmlns="http://www.w3.org/2000/svg"
     style="fill-rule:evenodd;clip-rule:evenodd;stroke-linejoin:round;stroke-miterlimit:2;">
    <path id="ground" d="M21.158,9.599c1.665,0.989 11.161,1.392 9.567,1.45c-1.007,0.036 4.518,-0.37 7.087,-0.023c0,0 0.999,0.659 1.221,1.098c0.222,0.33 0.179,1.285 0,2.308c-0.697,4.005 -8.007,14.005 -13.174,18.666c-3.48,3.139 -8.824,5.575 -11.975,6.144c-2.98,0.537 -4.159,0.029 -4.159,0.029c-5.329,-1.978 -7.995,-6.593 -7.995,-13.736c0,-0.11 0.221,-5.605 0.221,-5.714c1.11,-6.924 6.622,-18.44 6.66,-18.683c0.152,-0.987 2.028,-0.988 1.998,-0.439c3.109,2.527 6.218,5.164 9.105,7.911c0.444,0.439 0.888,0.769 1.444,0.989Z"
          style="fill-opacity:0.98;"/>
    <path id="mask"
          d="M20.237,11.776c1.387,0.832 9.295,1.172 7.967,1.221c-0.838,0.031 3.762,-0.311 5.901,-0.019c-0,0 0.832,0.555 1.017,0.925c0.185,0.277 0.149,1.08 -0,1.941c-0.581,3.37 -6.669,11.783 -10.972,15.703c-2.898,2.641 -7.349,4.69 -9.973,5.168c-2.481,0.453 -3.463,0.024 -3.463,0.024c-4.438,-1.664 -6.657,-5.547 -6.657,-11.557c-0,-0.092 0.185,-4.715 0.185,-4.807c0.925,-5.825 5.516,-15.513 5.547,-15.718c0.127,-0.83 1.689,-0.831 1.665,-0.37c2.588,2.127 5.177,4.346 7.581,6.657c0.37,0.37 0.74,0.647 1.202,0.832Zm0.74,1.295c-2.219,4.623 -4.346,9.245 -6.38,13.776l-0,0.092c1.664,0.74 2.774,1.942 3.513,3.698l0,0.185c0,1.017 -0.092,1.757 -0.369,2.404l-0.093,0c-0.647,-2.034 -2.034,-3.421 -4.16,-3.975c0,0.092 0,0.092 -0.093,0.092c-0.924,2.126 -1.941,4.16 -2.958,6.195c0,0.739 0.369,1.017 1.109,0.924c0.74,-0.092 1.387,-0.185 2.034,-0.37c4.715,-1.017 8.414,-3.051 11.28,-6.009c2.404,-2.497 4.622,-5.455 6.841,-8.784c2.127,-3.328 3.051,-5.455 2.867,-6.472c-0.925,-0.924 -2.127,-1.294 -3.699,-1.109c-3.605,0.277 -6.841,0.185 -9.892,-0.647Z"
          style="fill:#939393;fill-opacity:0.98;"/>
    <path id="highlight"
          d="M20.977,13.071c2.958,0.739 6.287,0.924 9.892,0.554c1.572,-0.184 2.774,0.185 3.699,1.11c0.284,1.404 -0.518,3.121 -2.645,6.449c-2.126,3.329 -4.443,6.353 -6.847,8.849c-2.866,2.959 -6.983,5.405 -11.698,6.422c-0.647,0.185 -1.512,0.146 -1.967,0.103c-0.833,-0.077 -1.067,-0.373 -0.974,-1.113c1.017,-2.034 2.034,-4.068 2.958,-6.194l0.093,-0.093c2.126,0.647 3.513,1.942 4.16,3.976l0.093,0c0.14,-0.307 0.309,-2.002 0.093,-2.722c-0.702,-2.331 -3.405,-3.391 -3.405,-3.391c2.126,-4.438 4.329,-9.327 6.548,-13.95Z"
          style="fill:#bebebe;fill-opacity:0.5;"/>
    <path id="eyemouth"
          d="M7.097,28.074c-1.472,-0.009 1.608,-3.218 7.487,-0.952c4.677,2.148 3.361,5.561 3.267,6.479c-0.379,-2.505 -7.438,-5.506 -10.754,-5.527Zm13.821,-9.372c-0.707,-0.323 3.269,-1.403 5.559,1.066c1.739,2.147 -1.437,3.716 -1.7,4.181c0.413,-1.408 -2.269,-4.52 -3.859,-5.247Zm-10.691,-2.379c-0.727,0.274 -0.986,-3.6 2.378,-3.484c2.75,0.279 3.92,3.93 4.064,4.445c-0.707,-1.285 -4.806,-1.577 -6.442,-0.961Z"
          style="fill:#fbfbfb;fill-opacity:0.99;"/>
</svg>
