<?xml version="1.0" encoding="UTF-8" standalone="no"?>
<!DOCTYPE svg PUBLIC "-//W3C//DTD SVG 1.1//EN" "http://www.w3.org/Graphics/SVG/1.1/DTD/svg11.dtd">
<svg width="100%" height="100%"
     viewBox="0 0 56892 32000"
     version="1.1" xmlns="http://www.w3.org/2000/svg" xmlns:xlink="http://www.w3.org/1999/xlink"
     style="fill-rule:evenodd;clip-rule:evenodd;stroke-linecap:round;stroke-linejoin:round;stroke-miterlimit:1.5;" >
    <g transform="matrix(2,0,0,2,0,0)">
        <g transform="matrix(2.66667,0,0,2.66667,0,0)">
            <g id="bg" transform="matrix(4.1586,0,0,4.17559,-17.0833,-15.2244)">
                <rect x="4.108" y="3.646" width="2564.97" height="1436.93" style="fill:rgb(3,3,0);mask: url(#_wuf)"/>
            </g>
            <g id="fg" transform="matrix(1.48644,0,0,4.17559,3551.89,-15.2244)">
                <rect x="4.108" y="3.646" width="2564.97" height="1436.93" style="fill: url(#pinkDots);"/>
            </g>
            <g id="episode" transform="matrix(2.05628,0,0,1.96143,3815.26,396.017)">
                <clipPath id="_clip1">
                    <path d="M235.05,389.005C199.02,426.207 231.8,492.678 245.295,513.509C255.154,528.73 290.292,572.985 312.685,596.796C332.537,617.904 375.513,613.417 391.058,601.152C419.087,579.036 440.515,542.728 455.801,527.031C472.361,510.027 517.825,443.769 465.959,388.764C433.557,354.402 384.454,348.53 355.028,347.684C324.621,346.811 267.702,355.291 235.05,389.005Z"/>
                </clipPath>
                <g clip-path="url(#_clip1)">
                    <g transform="matrix(0.0911839,-0,-0,0.0955933,-1855.42,-201.902)">
                        <use xlink:href="#_Image2" x="22753" y="5750.09" width="2976.15px" height="2760.28px" transform="matrix(0.999714,0,0,0.99974,0,0)"/>
                    </g>
                </g>
                <clipPath id="_clip3">
                    <path d="M235.05,389.005C199.02,426.207 231.8,492.678 245.295,513.509C255.154,528.73 290.292,572.985 312.685,596.796C332.537,617.904 375.513,613.417 391.058,601.152C419.087,579.036 440.515,542.728 455.801,527.031C472.361,510.027 517.825,443.769 465.959,388.764C433.557,354.402 384.454,348.53 355.028,347.684C324.621,346.811 267.702,355.291 235.05,389.005Z"/>
                </clipPath>
                <g clip-path="url(#_clip3)">
                    <path id="episode1" d="M256.571,394.996C221.466,421.232 239.392,478.988 254.079,498.997C275.776,528.555 296.185,559.785 318.579,583.596C338.43,604.704 367.043,601.242 382.588,588.976C410.617,566.861 440.99,522.278 456.599,501.357C470.069,483.304 490.241,429.896 450.902,395.91C415.163,365.035 352.582,364.578 349.006,364.578C345.429,364.578 294.165,366.9 256.571,394.996Z" style="fill:rgb(236,228,96);fill-opacity:0.26;stroke:rgb(255,247,0);stroke-opacity:0.32;stroke-width:0.56px;"/>
                    <g id="m1" transform="matrix(0.285757,0,0,0.25175,339.979,407.745)">
                        <ellipse cx="49.975" cy="537.906" rx="71.767" ry="78.82" style="fill:rgb(235,235,235);fill-opacity:0.44;"/>
                    </g>
                    <g id="p2" transform="matrix(0.285757,0,0,0.25175,372.691,349.384)">
                        <ellipse cx="49.975" cy="537.906" rx="71.767" ry="78.82" style="fill:rgb(235,235,235);fill-opacity:0.44;"/>
                    </g>
                    <g id="p1" transform="matrix(0.285757,0,0,0.25175,304.4,349.314)">
                        <ellipse cx="49.975" cy="537.906" rx="71.767" ry="78.82" style="fill:rgb(235,235,235);fill-opacity:0.44;"/>
                    </g>
                    <g id="n4" transform="matrix(0.285757,0,0,0.25175,423.952,297.613)">
                        <ellipse cx="49.975" cy="537.906" rx="71.767" ry="78.82" style="fill:rgb(235,235,235);fill-opacity:0.44;"/>
                    </g>
                    <g id="n3" transform="matrix(0.285757,0,0,0.25175,371.362,274.623)">
                        <ellipse cx="49.975" cy="537.906" rx="71.767" ry="78.82" style="fill:rgb(235,235,235);fill-opacity:0.44;"/>
                    </g>
                    <g id="n2" transform="matrix(0.285757,0,0,0.25175,309.861,273.378)">
                        <ellipse cx="49.975" cy="537.906" rx="71.767" ry="78.82" style="fill:rgb(235,235,235);fill-opacity:0.44;"/>
                    </g>
                    <g id="n1" transform="matrix(0.285757,0,0,0.25175,257.393,297.283)">
                        <ellipse cx="49.975" cy="537.906" rx="71.767" ry="78.82" style="fill:rgb(235,235,235);fill-opacity:0.44;"/>
                    </g>
                </g>
                <path d="M235.05,389.005C199.02,426.207 231.8,492.678 245.295,513.509C255.154,528.73 290.292,572.985 312.685,596.796C332.537,617.904 375.513,613.417 391.058,601.152C419.087,579.036 440.515,542.728 455.801,527.031C472.361,510.027 517.825,443.769 465.959,388.764C433.557,354.402 384.454,348.53 355.028,347.684C324.621,346.811 267.702,355.291 235.05,389.005Z" style="fill:none;stroke:rgb(255,247,0);stroke-opacity:0.23;stroke-width:0.56px;"/>
            </g>
            <g style="width:100px; height:100px">
                <path d="M25.393,25.261C24.703,25.602 28.734,28.277 28.474,29.107C28.138,30.176 27.384,31.201 26.84,32.182C26.157,33.412 25.605,34.726 24.85,35.908C21.85,40.601 19.437,45.907 18.084,51.252C17.939,51.825 18.283,52.359 18.535,52.826C18.989,53.667 19.476,54.446 20.013,55.32C20.258,55.719 20.415,56.136 20.694,56.513C22.003,58.278 22.759,60.525 24.045,62.293C25.033,63.652 26.565,65.073 28,65.949C28.575,66.299 29.153,66.883 29.698,67.065C30.449,67.315 31.177,67.431 31.958,67.779C33.499,68.466 35.062,69.123 36.635,69.731C38.273,70.363 39.93,70.89 41.593,71.446C42.957,71.902 44.494,72.574 45.934,72.718C48.056,72.929 50.13,73.027 52.301,72.846C53.556,72.741 54.696,72.684 55.92,72.414C56.42,72.304 57.279,72.168 57.65,71.758C59.068,70.197 60.175,67.367 59.236,65.315C58.986,64.769 58.371,64.569 57.96,64.159C57.392,63.59 56.761,63.022 56.149,62.489C54.554,61.1 53.679,59.702 52.747,57.837C52.104,56.552 51.578,55.397 51.266,54.036C51.177,53.649 51.162,53.045 51.388,52.703C51.889,51.945 52.414,51.74 53.176,51.256C54.988,50.105 57.12,49.861 59.176,49.64C60.379,49.511 61.657,49.723 62.83,49.425C65.052,48.863 66.995,47.389 68.546,45.603C70.141,43.768 71.934,40.989 70.154,38.621C69.698,38.014 68.914,37.992 68.199,37.992C67.811,37.992 67.171,37.886 66.857,38.041C65.57,38.676 64.159,39.917 62.769,40.29C60.771,40.827 58.632,40.558 56.59,40.301C55.759,40.197 54.739,40.24 53.973,39.984C53.559,39.845 53.243,39.102 53.143,38.704C52.75,37.146 52.685,35.351 52.432,33.747C52.254,32.614 51.415,32.074 50.977,31.117C50.674,30.455 49.956,29.905 49.485,29.334C48.507,28.15 47.312,26.887 45.932,26.197C44.576,25.518 42.504,25.951 41.023,25.803C38.745,25.575 36.472,24.716 34.228,25.273C33.606,25.428 32.915,25.32 32.358,25.505C32.11,25.587 31.54,25.435 31.371,25.602C31.249,25.722 30.79,25.572 30.629,25.651C30.148,25.888 14.193,16.635 25.393,25.261Z" style="stroke: red; fill: url(#pinkDots);"/>
            </g>
            <circle cx="50" cy="50" r="50" style="stroke: #ccc; fill: url(#pinkDots);" />
        </g>
        <svg width="20%" height="20%" viewBox="0 0 500 500"
             version="1.1" xmlns="http://www.w3.org/2000/svg" xmlns:xlink="http://www.w3.org/1999/xlink" xml:space="preserve"
             style="fill-rule:evenodd;clip-rule:evenodd;stroke-linecap:round;stroke-linejoin:round;stroke-miterlimit:1.5;">
            <g>
                <path d="M91.286,118.396C72.686,210.345 89.849,235.693 89.849,235.693L242.009,204.286L280.034,147.82C280.034,147.82 340.639,103.529 262.171,115.071C183.702,126.613 168.498,174.248 183.702,126.613C198.906,78.978 284.851,60.497 198.906,78.978C112.96,97.459 109.886,26.447 91.286,118.396Z"
                      style="url(#imgFillPattern);fill-opacity:0.53;stroke:black;stroke-width:1px;"/>
            </g>
            <image id="patx" width="100px" height="100px" xlink:href="1-certificate-paper-texture.jpg"/>
            <g>
                <path d="M158.286,206.496C115.21,287.526 82.354,211.099 115.21,287.526C148.066,363.953 48.1,405.839 148.066,363.953C248.032,322.067 338.668,436.405 248.032,322.067C157.396,207.729 201.363,125.466 158.286,206.496Z"
                      style="fill:rgb(60,172,63);fill-opacity:0.55;stroke:black;stroke-width:1px;"/>
            </g>
            <path d="M229.256,192.976L161.333,281.481C161.333,281.481 196.782,488.184 289.726,420.393C382.671,352.602 486.386,389.195 427.51,255.556C368.634,121.917 432.547,84.679 363.35,122.061C294.153,159.444 229.256,192.976 229.256,192.976Z"
                  style="fill:rgb(162,124,41);fill-opacity:0.57;stroke:black;stroke-width:1px;"/>
            <defs>
                <image id="pat" width="100px" height="100px" xlink:href="1-certificate-paper-texture.jpg"/>
            </defs>
        </svg>
    </g>
    <svg width="400" height="400">

        <defs>
            <pattern id="imgpattern" x="0" y="0" width="1" height="1"
                     viewBox="0 0 1024 576" preserveAspectRatio="xMidYMid slice">
                <image width="1024" height="576" xlink:href="http://calciodanese.altervista.org/alterpages/hbkgepage.jpg"/>
            </pattern>
        </defs>


        <path fill="url(#imgpattern)" stroke="black" stroke-width="4"
              d="M 100,50 L 120,110 150,90 170,220 70,300 50,250 50,200 70,100 50,70 Z" />

        <rect x="200" y="20" width="100" height="100"
              fill="url(#imgpattern)" stroke="black"/>

        <rect x="310" y="20" width="100" height="50"
              fill="url(#imgpattern)" stroke="black"/>
        <rect x="310" y="80" width="50" height="200"
              fill="url(#imgpattern)" stroke="black"/>

        <circle cx="220" cy="300" r="50"
                fill="url(#imgpattern)" stroke="black"/>
    </svg>
    <defs>
        <image id="_Image2" width="100px" height="100px" xlink:href="1-certificate-paper-texture.jpg"/>
        <image id="_check" width="100px" height="100px" xlink:href="check.png"/>
        <path id="_wuf" d="M25.393,25.261C24.703,25.602 28.734,28.277 28.474,29.107C28.138,30.176 27.384,31.201 26.84,32.182C26.157,33.412 25.605,34.726 24.85,35.908C21.85,40.601 19.437,45.907 18.084,51.252C17.939,51.825 18.283,52.359 18.535,52.826C18.989,53.667 19.476,54.446 20.013,55.32C20.258,55.719 20.415,56.136 20.694,56.513C22.003,58.278 22.759,60.525 24.045,62.293C25.033,63.652 26.565,65.073 28,65.949C28.575,66.299 29.153,66.883 29.698,67.065C30.449,67.315 31.177,67.431 31.958,67.779C33.499,68.466 35.062,69.123 36.635,69.731C38.273,70.363 39.93,70.89 41.593,71.446C42.957,71.902 44.494,72.574 45.934,72.718C48.056,72.929 50.13,73.027 52.301,72.846C53.556,72.741 54.696,72.684 55.92,72.414C56.42,72.304 57.279,72.168 57.65,71.758C59.068,70.197 60.175,67.367 59.236,65.315C58.986,64.769 58.371,64.569 57.96,64.159C57.392,63.59 56.761,63.022 56.149,62.489C54.554,61.1 53.679,59.702 52.747,57.837C52.104,56.552 51.578,55.397 51.266,54.036C51.177,53.649 51.162,53.045 51.388,52.703C51.889,51.945 52.414,51.74 53.176,51.256C54.988,50.105 57.12,49.861 59.176,49.64C60.379,49.511 61.657,49.723 62.83,49.425C65.052,48.863 66.995,47.389 68.546,45.603C70.141,43.768 71.934,40.989 70.154,38.621C69.698,38.014 68.914,37.992 68.199,37.992C67.811,37.992 67.171,37.886 66.857,38.041C65.57,38.676 64.159,39.917 62.769,40.29C60.771,40.827 58.632,40.558 56.59,40.301C55.759,40.197 54.739,40.24 53.973,39.984C53.559,39.845 53.243,39.102 53.143,38.704C52.75,37.146 52.685,35.351 52.432,33.747C52.254,32.614 51.415,32.074 50.977,31.117C50.674,30.455 49.956,29.905 49.485,29.334C48.507,28.15 47.312,26.887 45.932,26.197C44.576,25.518 42.504,25.951 41.023,25.803C38.745,25.575 36.472,24.716 34.228,25.273C33.606,25.428 32.915,25.32 32.358,25.505C32.11,25.587 31.54,25.435 31.371,25.602C31.249,25.722 30.79,25.572 30.629,25.651C30.148,25.888 14.193,16.635 25.393,25.261Z" style="fill:rgb(156,156,156);fill-opacity:0.42;stroke:black;stroke-width:1px;"/>
        <pattern id="pinkDots"
                 x="10" y="10" width="20" height="20" patternUnits="userSpaceOnUse" >
            <circle cx="10" cy="10" r="7" style="stroke: none; fill: magenta" />
        </pattern>
        <pattern id="imgFillPattern"
                 x="0" y="0" width="1" height="1"
                 viewBox="0 0 500 300" preserveAspectRatio="xMidYMid slice">
            <image width="500px" height="300px" xlink:href="http://calciodanese.altervista.org/alterpages/hbkgepage.jpg"/>
        </pattern>
    </defs>
</svg>
