<?xml version="1.0" encoding="UTF-8" standalone="no"?>
<!DOCTYPE svg PUBLIC "-//W3C//DTD SVG 1.1//EN" "http://www.w3.org/Graphics/SVG/1.1/DTD/svg11.dtd">
<svg width="100%" height="100%" viewBox="0 0 100 100" version="1.1" xmlns="http://www.w3.org/2000/svg" xmlns:xlink="http://www.w3.org/1999/xlink" xml:space="preserve" xmlns:serif="http://www.serif.com/" style="fill-rule:evenodd;clip-rule:evenodd;stroke-linecap:round;stroke-linejoin:round;stroke-miterlimit:1.5;">
    <g transform="matrix(1,0,0,1,-3.02507,7.83411)">
        <path d="M25.393,25.261C24.703,25.602 28.734,28.277 28.474,29.107C28.138,30.176 27.384,31.201 26.84,32.182C26.157,33.412 25.605,34.726 24.85,35.908C21.85,40.601 19.437,45.907 18.084,51.252C17.939,51.825 18.283,52.359 18.535,52.826C18.989,53.667 19.476,54.446 20.013,55.32C20.258,55.719 20.415,56.136 20.694,56.513C22.003,58.278 22.759,60.525 24.045,62.293C25.033,63.652 26.565,65.073 28,65.949C28.575,66.299 29.153,66.883 29.698,67.065C30.449,67.315 31.177,67.431 31.958,67.779C33.499,68.466 35.062,69.123 36.635,69.731C38.273,70.363 39.93,70.89 41.593,71.446C42.957,71.902 44.494,72.574 45.934,72.718C48.056,72.929 50.13,73.027 52.301,72.846C53.556,72.741 54.696,72.684 55.92,72.414C56.42,72.304 57.279,72.168 57.65,71.758C59.068,70.197 60.175,67.367 59.236,65.315C58.986,64.769 58.371,64.569 57.96,64.159C57.392,63.59 56.761,63.022 56.149,62.489C54.554,61.1 53.679,59.702 52.747,57.837C52.104,56.552 51.578,55.397 51.266,54.036C51.177,53.649 51.162,53.045 51.388,52.703C51.889,51.945 52.414,51.74 53.176,51.256C54.988,50.105 57.12,49.861 59.176,49.64C60.379,49.511 61.657,49.723 62.83,49.425C65.052,48.863 66.995,47.389 68.546,45.603C70.141,43.768 71.934,40.989 70.154,38.621C69.698,38.014 68.914,37.992 68.199,37.992C67.811,37.992 67.171,37.886 66.857,38.041C65.57,38.676 64.159,39.917 62.769,40.29C60.771,40.827 58.632,40.558 56.59,40.301C55.759,40.197 54.739,40.24 53.973,39.984C53.559,39.845 53.243,39.102 53.143,38.704C52.75,37.146 52.685,35.351 52.432,33.747C52.254,32.614 51.415,32.074 50.977,31.117C50.674,30.455 49.956,29.905 49.485,29.334C48.507,28.15 47.312,26.887 45.932,26.197C44.576,25.518 42.504,25.951 41.023,25.803C38.745,25.575 36.472,24.716 34.228,25.273C33.606,25.428 32.915,25.32 32.358,25.505C32.11,25.587 31.54,25.435 31.371,25.602C31.249,25.722 30.79,25.572 30.629,25.651C30.148,25.888 14.193,16.635 25.393,25.261Z" style="fill:rgb(156,156,156);fill-opacity:0.42;stroke:black;stroke-width:1px;"/>
    </g>
    <g transform="matrix(1,0,0,1,8.17713,-5.27234)">
        <path d="M25.393,25.261C24.703,25.602 28.734,28.277 28.474,29.107C28.138,30.176 27.384,31.201 26.84,32.182C26.157,33.412 25.605,34.726 24.85,35.908C21.85,40.601 19.437,45.907 18.084,51.252C17.939,51.825 18.283,52.359 18.535,52.826C18.989,53.667 19.476,54.446 20.013,55.32C20.258,55.719 20.415,56.136 20.694,56.513C22.003,58.278 22.759,60.525 24.045,62.293C25.033,63.652 26.565,65.073 28,65.949C28.575,66.299 29.153,66.883 29.698,67.065C30.449,67.315 31.177,67.431 31.958,67.779C33.499,68.466 35.062,69.123 36.635,69.731C38.273,70.363 39.93,70.89 41.593,71.446C42.957,71.902 44.494,72.574 45.934,72.718C48.056,72.929 50.13,73.027 52.301,72.846C53.556,72.741 54.696,72.684 55.92,72.414C56.42,72.304 57.279,72.168 57.65,71.758C59.068,70.197 60.175,67.367 59.236,65.315C58.986,64.769 58.371,64.569 57.96,64.159C57.392,63.59 56.761,63.022 56.149,62.489C54.554,61.1 53.679,59.702 52.747,57.837C52.104,56.552 51.578,55.397 51.266,54.036C51.177,53.649 51.162,53.045 51.388,52.703C51.889,51.945 52.414,51.74 53.176,51.256C54.988,50.105 57.12,49.861 59.176,49.64C60.379,49.511 61.657,49.723 62.83,49.425C65.052,48.863 66.995,47.389 68.546,45.603C70.141,43.768 71.934,40.989 70.154,38.621C69.698,38.014 68.914,37.992 68.199,37.992C67.811,37.992 67.171,37.886 66.857,38.041C65.57,38.676 64.159,39.917 62.769,40.29C60.771,40.827 58.632,40.558 56.59,40.301C55.759,40.197 54.739,40.24 53.973,39.984C53.559,39.845 53.243,39.102 53.143,38.704C52.75,37.146 52.685,35.351 52.432,33.747C52.254,32.614 51.415,32.074 50.977,31.117C50.674,30.455 49.956,29.905 49.485,29.334C48.507,28.15 47.312,26.887 45.932,26.197C44.576,25.518 42.504,25.951 41.023,25.803C38.745,25.575 36.472,24.716 34.228,25.273C33.606,25.428 32.915,25.32 32.358,25.505C32.11,25.587 31.54,25.435 31.371,25.602C31.249,25.722 30.79,25.572 30.629,25.651C30.148,25.888 14.193,16.635 25.393,25.261Z" style="fill:rgb(156,156,156);fill-opacity:0.42;stroke:black;stroke-width:1px;"/>
    </g>
</svg>
